<svg xmlns="http://www.w3.org/2000/svg" width="23.771" height="19.576" viewBox="0 0 23.771 19.576"><defs><style>.a{fill:#fd4e1e;}</style></defs><g transform="translate(0 -37.27)"><g transform="translate(0 37.27)"><path class="a" d="M0,51.264a2.017,2.017,0,0,1,1.393-1.89V42.42L0,41.866l11.886-4.6,11.886,4.6-11.886,4.6-9.1-3.5v6.415a1.975,1.975,0,0,1,.2,3.7l1.157,3.346-1.321.425-.732-2.118-.732,2.118L.036,56.421l1.157-3.346A2.007,2.007,0,0,1,0,51.264Z" transform="translate(0 -37.27)"/></g><g transform="translate(5.71 45.419)"><path class="a" d="M127.176,223.3l6.176-2.48v1.792c0,1.956-2.655,3.431-6.176,3.431S121,224.568,121,222.612V220.82Z" transform="translate(-121 -220.82)"/></g></g></svg>