<svg xmlns="http://www.w3.org/2000/svg" xmlns:xlink="http://www.w3.org/1999/xlink" width="547.869" height="300.025" viewBox="0 0 547.869 300.025"><defs><style>.a{fill:#f9f5ef;}.ab,.ac,.ad,.aj,.b,.d,.h,.o{fill:none;}.b{stroke:#151f85;stroke-width:5.74px;}.c,.i,.j{fill:#fd4e1e;}.c{stroke-miterlimit:10;}.d{stroke:#2c7df0;stroke-width:2.62px;}.ab,.ad,.d{stroke-linecap:round;}.ai,.e,.k,.l,.m{fill:#fff;}.ac,.e{stroke:#d0d1d2;}.ag,.f,.g{fill:#151a22;}.aa,.f,.k{font-size:12px;}.f,.i{font-family:Poppins-Bold, Poppins;font-weight:700;}.g,.l{font-size:10px;}.g{font-family:Poppins-Regular, Poppins;opacity:0.6;}.h{stroke:#d8d8d8;}.i{font-size:16px;}.aa,.k{font-family:Poppins-SemiBold, Poppins;font-weight:600;}.l{font-family:Poppins-Medium, Poppins;font-weight:500;opacity:0.8;}.n{fill:#fd4e1f;}.o{stroke:#151a22;}.ag,.o{opacity:0.2;}.p{fill:#2c81fa;}.q{fill:#fcbb2d;}.r{fill:#fbbb00;}.s{fill:#518ef8;}.t{fill:#28b446;}.u{fill:#f14336;}.v{fill:#151f85;}.w{fill:#8cb4eb;}.x{fill:#739bd7;}.y{fill:#a5cdff;}.z{fill:#d3380e;}.aa{fill:#ff4e00;}.ab{stroke:#ff4e00;stroke-width:1.5px;}.ab,.ad{stroke-linejoin:round;}.ad{stroke:#fd4e1e;stroke-width:6px;}.ae{fill:url(#c);}.af{fill:#2c7df0;}.ag{font-size:34px;font-family:Roboto-Black, Roboto;font-weight:800;}.ah,.ai{stroke:none;}.ak{filter:url(#a);}</style><filter id="a" x="35.369" y="36.525" width="505" height="256" filterUnits="userSpaceOnUse"><feOffset dy="1" input="SourceAlpha"/><feGaussianBlur stdDeviation="1.5" result="b"/><feFlood flood-opacity="0.102"/><feComposite operator="in" in2="b"/><feComposite in="SourceGraphic"/></filter><radialGradient id="c" cx="0.5" cy="0.5" r="0.466" gradientTransform="translate(0 -1.413) scale(1 3.827)" gradientUnits="objectBoundingBox"><stop offset="0" stop-color="#fff" stop-opacity="0"/><stop offset="1" stop-color="#fff"/></radialGradient></defs><g transform="translate(-691.131 -1867.975)"><rect class="a" width="491" height="245" rx="8" transform="translate(748 1923)"/><g transform="translate(-353.969 1055.354)"><g transform="translate(1047.97 815.491)"><circle class="b" cx="29.327" cy="29.327" r="29.327" transform="translate(0 0)"/></g><g class="c" transform="translate(-19.933 1.591)"><path class="ah" d="M 1097.644165039062 853.2205810546875 C 1095.987915039062 853.2205810546875 1094.4306640625 852.57568359375 1093.25927734375 851.4046630859375 L 1083.014038085938 841.1595458984375 C 1080.596313476562 838.7411499023438 1080.596435546875 834.806884765625 1083.013916015625 832.38916015625 C 1084.186401367188 831.2176513671875 1085.743530273438 830.572998046875 1087.3994140625 830.572998046875 C 1089.055541992188 830.572998046875 1090.612670898438 831.2177734375 1091.784057617188 832.3885498046875 L 1097.644165039062 838.2488403320312 L 1118.87109375 817.0216064453125 C 1120.04296875 815.850341796875 1121.600219726562 815.2055053710938 1123.25634765625 815.2055053710938 C 1124.912475585938 815.2055053710938 1126.4697265625 815.850341796875 1127.64111328125 817.0211181640625 C 1128.812866210938 818.1929321289062 1129.457885742188 819.7503051757812 1129.457885742188 821.4068603515625 C 1129.457885742188 823.0635375976562 1128.812744140625 824.620849609375 1127.641479492188 825.7921142578125 L 1102.029418945312 851.4043579101562 C 1100.857055664062 852.5758056640625 1099.299926757812 853.2205810546875 1097.644165039062 853.2205810546875 Z"/><path class="ai" d="M 1097.644165039062 850.2205810546875 C 1098.4931640625 850.2205810546875 1099.307373046875 849.88330078125 1099.908081054688 849.2830200195312 L 1125.520263671875 823.6707153320312 C 1126.770385742188 822.420654296875 1126.770385742188 820.3931274414062 1125.520263671875 819.1429443359375 C 1124.89501953125 818.5180053710938 1124.07568359375 818.20556640625 1123.25634765625 818.20556640625 C 1122.43701171875 818.20556640625 1121.61767578125 818.5180053710938 1120.992431640625 819.1429443359375 L 1097.644165039062 842.4915161132812 L 1089.663208007812 834.5103759765625 C 1089.037963867188 833.885498046875 1088.218872070312 833.572998046875 1087.3994140625 833.572998046875 C 1086.580322265625 833.572998046875 1085.760864257812 833.8854370117188 1085.135375976562 834.5103759765625 C 1083.88525390625 835.7606201171875 1083.88525390625 837.7877197265625 1085.135375976562 839.0382080078125 L 1095.380249023438 849.2830200195312 C 1095.980712890625 849.88330078125 1096.794677734375 850.2205810546875 1097.644165039062 850.2205810546875 M 1097.644165039062 856.2205810546875 C 1095.186645507812 856.2205810546875 1092.876098632812 855.263671875 1091.13818359375 853.5262451171875 L 1080.892700195312 843.2808227539062 C 1077.305419921875 839.6925048828125 1077.305541992188 833.855224609375 1080.892578125 830.2679443359375 C 1082.632568359375 828.5293579101562 1084.942749023438 827.572998046875 1087.3994140625 827.572998046875 C 1089.856567382812 827.572998046875 1092.1669921875 828.5296630859375 1093.904907226562 830.2667846679688 L 1097.644165039062 834.0061645507812 L 1116.749755859375 814.9003295898438 C 1118.48876953125 813.1621704101562 1120.799072265625 812.20556640625 1123.25634765625 812.20556640625 C 1125.713623046875 812.20556640625 1128.02392578125 813.1622314453125 1129.761840820312 814.8993530273438 C 1131.500854492188 816.6383056640625 1132.457885742188 818.9490356445312 1132.457885742188 821.4068603515625 C 1132.457885742188 823.8648681640625 1131.500732421875 826.1755981445312 1129.762817382812 827.9134521484375 L 1104.150756835938 853.525634765625 C 1102.4111328125 855.2640380859375 1100.100952148438 856.2205810546875 1097.644165039062 856.2205810546875 Z"/></g><g transform="translate(1077.297 823.312)"><path class="d" d="M1122.615,838.819v2.14" transform="translate(-1122.615 -838.819)"/><path class="d" d="M1122.615,936.83v2.139" transform="translate(-1122.615 -895.929)"/></g><g transform="translate(1055.777 844.832)"><path class="d" d="M1171.2,890.388h-2.139" transform="translate(-1128.157 -890.388)"/><path class="d" d="M1073.187,890.388h-2.139" transform="translate(-1071.048 -890.388)"/></g></g><g transform="translate(731 1908)"><g class="ak" transform="matrix(1, 0, 0, 1, -39.87, -40.02)"><g class="e" transform="translate(39.87 40.02)"><rect class="ah" width="496" height="247" rx="6"/><rect class="aj" x="0.5" y="0.5" width="495" height="246" rx="5.5"/></g></g><g transform="translate(77 18)"><text class="f" transform="translate(0 26)"><tspan x="0" y="0">Your Company</tspan></text><text class="g" transform="translate(0 9)"><tspan x="0" y="0">Select Account</tspan></text><g transform="translate(101 21)"><path d="M6.87,64.085a.417.417,0,0,0-.308-.132H.438a.417.417,0,0,0-.308.132.441.441,0,0,0,0,.625l3.062,3.111a.424.424,0,0,0,.615,0L6.87,64.71a.441.441,0,0,0,0-.625Z" transform="translate(0 -63.953)"/></g></g><g transform="translate(0 -4)"><g class="h" transform="translate(24 16)"><rect class="ah" width="40" height="40" rx="20"/><rect class="aj" x="0.5" y="0.5" width="39" height="39" rx="19.5"/></g><text class="i" transform="translate(33 42)"><tspan x="0" y="0">YC</tspan></text></g><g transform="translate(-13 -3.231)"><rect class="j" width="156" height="50" rx="25" transform="translate(37 94.231)"/><text class="k" transform="translate(86 131.231)"><tspan x="0" y="0">5 minutes ago</tspan></text><text class="l" transform="translate(86 115.231)"><tspan x="0" y="0">Last Update</tspan></text><rect class="m" width="32" height="32" rx="16" transform="translate(46 103.231)"/><g transform="translate(55 113.114)"><path class="n" d="M13.172,28.7V27.187a1.159,1.159,0,0,0-1.158-1.158H11.86v1.415a.386.386,0,1,1-.772,0V25.386a.386.386,0,1,0-.772,0v.643H7.744v1.415a.386.386,0,1,1-.772,0V25.386a.386.386,0,1,0-.772,0v.643H3.627v1.415a.386.386,0,1,1-.772,0V25.386a.386.386,0,1,0-.772,0v.643H1.158A1.159,1.159,0,0,0,0,27.187V28.7Z" transform="translate(0 -25)"/><path class="n" d="M0,199v6.252a1.159,1.159,0,0,0,1.158,1.158H12.014a1.159,1.159,0,0,0,1.158-1.158V199Zm3.7,5.351H2.881a.386.386,0,0,1,0-.772H3.7a.386.386,0,0,1,0,.772Zm0-1.647H2.881a.386.386,0,0,1,0-.772H3.7a.386.386,0,0,1,0,.772Zm0-1.647H2.881a.386.386,0,1,1,0-.772H3.7a.386.386,0,1,1,0,.772ZM7,204.351H6.174a.386.386,0,0,1,0-.772H7a.386.386,0,0,1,0,.772ZM7,202.7H6.174a.386.386,0,0,1,0-.772H7a.386.386,0,0,1,0,.772Zm0-1.647H6.174a.386.386,0,1,1,0-.772H7a.386.386,0,1,1,0,.772Zm3.293,3.293H9.467a.386.386,0,0,1,0-.772h.823a.386.386,0,0,1,0,.772Zm0-1.647H9.467a.386.386,0,0,1,0-.772h.823a.386.386,0,0,1,0,.772Zm0-1.647H9.467a.386.386,0,1,1,0-.772h.823a.386.386,0,1,1,0,.772Z" transform="translate(0 -194.524)"/></g></g><line class="o" x2="495.5" transform="translate(0 64)"/><g transform="translate(201.961 97)"><rect class="p" width="132" height="50" rx="25" transform="translate(-5.961 -6)"/><text class="k" transform="translate(43.039 23)"><tspan x="0" y="0">Facebook</tspan></text><g transform="translate(2.714 2.714)"><rect class="m" width="32" height="32" rx="16" transform="translate(0.325 0.286)"/><g transform="translate(-112.53 8.797)"><path class="p" d="M130.112,4.747V3.5a2.752,2.752,0,0,1,.026-.435.845.845,0,0,1,.119-.3.485.485,0,0,1,.3-.207,2.128,2.128,0,0,1,.55-.057h1.248V0h-2a3.248,3.248,0,0,0-2.488.822,3.463,3.463,0,0,0-.756,2.422v1.5h-1.495v2.5h1.495v7.244h3V7.244h2l.264-2.5Z" transform="translate(0)"/></g></g></g><g transform="translate(349.961 97)"><rect class="q" width="116" height="50" rx="25" transform="translate(-5.961 -6)"/><text class="k" transform="translate(43.039 23)"><tspan x="0" y="0">Google</tspan></text><g transform="translate(2.969 2.969)"><rect class="m" width="32" height="32" rx="16" transform="translate(0.07 0.031)"/><g transform="translate(8.07 8.408)"><path class="r" d="M3.462,143.49l-.544,2.03-1.988.042a7.825,7.825,0,0,1-.058-7.294h0l1.77.324.775,1.759a4.662,4.662,0,0,0,.044,3.139Z" transform="translate(0 -134.049)"/><path class="s" d="M269.131,208.176a7.808,7.808,0,0,1-2.785,7.551h0l-2.229-.114-.315-1.969a4.656,4.656,0,0,0,2-2.377h-4.177v-3.09h7.5Z" transform="translate(-253.645 -201.824)"/><path class="t" d="M42.28,313.871h0a7.814,7.814,0,0,1-11.771-2.39l2.531-2.072a4.646,4.646,0,0,0,6.695,2.379Z" transform="translate(-29.578 -299.968)"/><path class="u" d="M40.548,1.8,38.018,3.87A4.645,4.645,0,0,0,31.169,6.3L28.624,4.219h0A7.813,7.813,0,0,1,40.548,1.8Z" transform="translate(-27.751)"/></g></g></g><rect class="v" width="36" height="36" rx="18" transform="translate(421 14)"/><g transform="translate(465 30)"><path class="v" d="M6.87,64.085a.417.417,0,0,0-.308-.132H.438a.417.417,0,0,0-.308.132.441.441,0,0,0,0,.625l3.062,3.111a.424.424,0,0,0,.615,0L6.87,64.71a.441.441,0,0,0,0-.625Z" transform="translate(0 -63.953)"/></g><g transform="translate(331.266 22.965)"><path class="w" d="M110.635,153.749l-2.585-1.293a1.023,1.023,0,0,1-.566-.915V149.1h-4.776v2.438a1.023,1.023,0,0,1-.566.915l-2.585,1.293a1.706,1.706,0,0,0-.943,1.526v2.016a.682.682,0,0,0,.682.682h11.6a.682.682,0,0,0,.682-.682v-2.016A1.706,1.706,0,0,0,110.635,153.749Z" transform="translate(2.62 -141.928)"/><g transform="translate(101.234 7.175)"><path class="x" d="M99.3,267.146v-1.334a1.712,1.712,0,0,0-.682,1.365v2.016a.682.682,0,0,0,.682.682h11.6a.682.682,0,0,0,.682-.682H101.343A2.047,2.047,0,0,1,99.3,267.146Z" transform="translate(-98.614 -261.005)"/><path class="x" d="M198.016,151.057a4.065,4.065,0,0,0,4.776,0V149.1h-4.776Z" transform="translate(-193.922 -149.103)"/></g><path class="y" d="M176.577,0c-1.884,0-3.412,1.222-3.412,2.729V4.776a3.412,3.412,0,0,0,6.823,0V2.729C179.988,1.222,178.461,0,176.577,0Z" transform="translate(-68.86 1.034)"/><path class="w" d="M174.53,5.043V2.655A2.7,2.7,0,0,1,176.264.278,3.054,3.054,0,0,0,173.165,3V5.043a3.416,3.416,0,0,0,4.094,3.343A3.413,3.413,0,0,1,174.53,5.043Z" transform="translate(-68.86 0.768)"/></g><g transform="translate(368.823 172.971)"><path class="j" d="M157.686,291.01l-12.418,4.32a1.025,1.025,0,0,0-.683,1.068,29.651,29.651,0,0,0,13.207,21.678,1.05,1.05,0,0,0,1.134,0A29.651,29.651,0,0,0,172.133,296.4a1.026,1.026,0,0,0-.683-1.068l-12.418-4.32A2.05,2.05,0,0,0,157.686,291.01Z" transform="translate(-69.907 -265.867)"/><path class="m" d="M210.407,371.135h0a1.025,1.025,0,0,1-.724-.3l-4.209-4.21a1.024,1.024,0,0,1,1.449-1.449l3.484,3.485,5.89-5.89a1.024,1.024,0,1,1,1.448,1.449l-6.614,6.614A1.023,1.023,0,0,1,210.407,371.135Z" transform="translate(-123.009 -328.593)"/><path class="z" d="M148.445,317.809l-3.176,1.1a1.025,1.025,0,0,0-.683,1.068,29.651,29.651,0,0,0,13.207,21.678,1.05,1.05,0,0,0,1.134,0q1-.652,1.9-1.346C151.728,333.113,149.157,322.767,148.445,317.809Z" transform="translate(-69.907 -289.454)"/></g><g transform="translate(12)"><g transform="translate(284 24)"><text class="aa" transform="translate(16 13)"><tspan x="0" y="0">Create Ad</tspan></text><g transform="translate(0 5)"><line class="ab" y2="8" transform="translate(4)"/><line class="ab" x2="8" transform="translate(0 4)"/></g></g><line class="ac" y2="64" transform="translate(260)"/><line class="ac" y2="64" transform="translate(385)"/></g><path class="ad" d="M-16701-11884l16,16,16-16,16,16,21.986-21.986,29.986,29.986,20.027-20.028" transform="translate(16735 12071.486)"/><rect class="ae" width="133" height="45" transform="translate(29 173)"/><rect class="af" width="138" height="8" rx="4" transform="translate(243 183)"/><rect class="j" width="76" height="8" rx="4" transform="translate(243 201)"/><text class="ag" transform="translate(211 209)"><tspan x="0" y="0">$</tspan></text><g transform="translate(535.311 -834) rotate(90)"><rect class="af" width="10.309" height="3.221" rx="1.611" transform="translate(1016 139.544)"/><rect class="af" width="10.309" height="3.221" rx="1.611" transform="translate(1019.544 146.309) rotate(-90)"/></g><rect class="j" width="9" height="3.5" rx="1.75" transform="translate(327.002 203.5)"/></g></g></svg>