<svg xmlns="http://www.w3.org/2000/svg" width="27.037" height="23.35" viewBox="0 0 27.037 23.35"><defs><style>.a{fill:#ff4e00;}</style></defs><g transform="translate(0 -40.8)"><g transform="translate(0 40.8)"><path class="a" d="M18.025,44.841A2.021,2.021,0,1,0,16,42.821,2.016,2.016,0,0,0,18.025,44.841Zm3.38,8.083a5.613,5.613,0,1,0,5.633,5.613A5.568,5.568,0,0,0,21.4,52.924Zm0,9.542a3.929,3.929,0,1,1,3.943-3.929A3.985,3.985,0,0,1,21.4,62.466ZM16.673,50.679H21.4V48.658H17.8l-2.14-3.7a1.982,1.982,0,0,0-3.042-.337L8.449,48.771a1.856,1.856,0,0,0-.563,1.347,1.978,1.978,0,0,0,.9,1.684l3.83,2.245V59.66h2.028v-7.3l-2.478-1.908,2.591-2.582ZM5.633,52.924a5.613,5.613,0,1,0,0,11.226,5.613,5.613,0,1,0,0-11.226Zm0,9.542a3.929,3.929,0,1,1,0-7.858,3.929,3.929,0,1,1,0,7.858Z" transform="translate(0 -40.8)"/></g></g></svg>