<svg xmlns="http://www.w3.org/2000/svg" width="24.068" height="24.068" viewBox="0 0 24.068 24.068"><defs><style>.a{fill:#ff4e00;}</style></defs><path class="a" d="M12.034,0a12.034,12.034,0,0,0,0,24.068,2.056,2.056,0,0,0,2.006-2.006,1.717,1.717,0,0,0-.535-1.337,2.376,2.376,0,0,1-.535-1.337,2.056,2.056,0,0,1,2.006-2.006h2.407A6.621,6.621,0,0,0,24.068,10.7C24.068,4.814,18.72,0,12.034,0ZM4.68,12.034a2.006,2.006,0,1,1,0-4.011,2.056,2.056,0,0,1,2.006,2.006A2.056,2.056,0,0,1,4.68,12.034ZM8.691,6.686A2.056,2.056,0,0,1,6.686,4.68,2.056,2.056,0,0,1,8.691,2.674,2.056,2.056,0,0,1,10.7,4.68,2.056,2.056,0,0,1,8.691,6.686Zm6.686,0A2.056,2.056,0,0,1,13.371,4.68a2.006,2.006,0,0,1,4.011,0A2.056,2.056,0,0,1,15.377,6.686Zm4.011,5.349a2.056,2.056,0,0,1-2.006-2.006,2.006,2.006,0,1,1,2.006,2.006Z"/></svg>